<svg width="350" height="350" viewBox="0 0 350 350" fill="none" xmlns="http://www.w3.org/2000/svg">
<rect width="350" height="350" rx="25" fill="#71DCE3"/>
<path d="M48.696 135.727V139.278H34.5625V135.727H48.696ZM38.6818 129.193H42.8722V155.188C42.8722 156.371 43.0438 157.259 43.3871 157.851C43.7422 158.431 44.192 158.821 44.7365 159.023C45.2929 159.212 45.8788 159.307 46.4943 159.307C46.956 159.307 47.3348 159.283 47.6307 159.236C47.9266 159.177 48.1634 159.129 48.3409 159.094L49.1932 162.858C48.9091 162.964 48.5125 163.071 48.0036 163.178C47.4946 163.296 46.8494 163.355 46.0682 163.355C44.8845 163.355 43.7244 163.101 42.5881 162.592C41.4635 162.083 40.5284 161.307 39.7827 160.266C39.0488 159.224 38.6818 157.91 38.6818 156.324V129.193ZM66.141 163.568C63.5131 163.568 61.2463 162.988 59.3406 161.828C57.4466 160.656 55.9847 159.023 54.9549 156.928C53.9369 154.821 53.4279 152.37 53.4279 149.577C53.4279 146.783 53.9369 144.321 54.9549 142.19C55.9847 140.048 57.417 138.379 59.2518 137.183C61.0984 135.976 63.2527 135.372 65.7148 135.372C67.1353 135.372 68.538 135.609 69.9229 136.082C71.3079 136.556 72.5685 137.325 73.7049 138.391C74.8413 139.444 75.7468 140.841 76.4215 142.581C77.0962 144.321 77.4336 146.464 77.4336 149.009V150.784H56.4109V147.162H73.1722C73.1722 145.623 72.8645 144.25 72.2489 143.043C71.6452 141.835 70.7811 140.882 69.6566 140.184C68.5439 139.486 67.23 139.136 65.7148 139.136C64.0458 139.136 62.6017 139.551 61.3825 140.379C60.1751 141.196 59.2459 142.261 58.5948 143.575C57.9438 144.889 57.6183 146.298 57.6183 147.801V150.216C57.6183 152.276 57.9734 154.022 58.6836 155.454C59.4057 156.874 60.4059 157.957 61.6843 158.703C62.9627 159.437 64.4483 159.804 66.141 159.804C67.2418 159.804 68.2362 159.65 69.1239 159.342C70.0236 159.023 70.7989 158.549 71.4499 157.922C72.101 157.283 72.604 156.49 72.9592 155.543L77.0075 156.679C76.5813 158.052 75.8652 159.259 74.859 160.301C73.8529 161.331 72.61 162.136 71.1303 162.716C69.6507 163.284 67.9876 163.568 66.141 163.568ZM103.126 141.835L99.3619 142.901C99.1251 142.273 98.7759 141.664 98.3143 141.072C97.8645 140.468 97.2489 139.971 96.4677 139.58C95.6864 139.19 94.6862 138.994 93.467 138.994C91.7979 138.994 90.4071 139.379 89.2944 140.148C88.1935 140.906 87.6431 141.871 87.6431 143.043C87.6431 144.084 88.0219 144.907 88.7795 145.511C89.5371 146.114 90.7208 146.617 92.3306 147.02L96.3789 148.014C98.8174 148.606 100.634 149.512 101.83 150.731C103.025 151.938 103.623 153.495 103.623 155.401C103.623 156.963 103.173 158.36 102.274 159.591C101.386 160.822 100.143 161.793 98.5451 162.503C96.9471 163.213 95.0887 163.568 92.9698 163.568C90.1881 163.568 87.8858 162.964 86.0629 161.757C84.2399 160.55 83.0858 158.786 82.6005 156.466L86.5778 155.472C86.9566 156.939 87.6727 158.04 88.7262 158.774C89.7915 159.508 91.1824 159.875 92.8988 159.875C94.8519 159.875 96.4026 159.461 97.5508 158.632C98.7108 157.792 99.2908 156.786 99.2908 155.614C99.2908 154.667 98.9594 153.874 98.2965 153.234C97.6336 152.583 96.6156 152.098 95.2425 151.778L90.6971 150.713C88.1995 150.121 86.3647 149.204 85.1928 147.961C84.0328 146.706 83.4528 145.138 83.4528 143.256C83.4528 141.717 83.8848 140.356 84.7489 139.172C85.6249 137.988 86.8145 137.059 88.3178 136.384C89.833 135.71 91.5494 135.372 93.467 135.372C96.1658 135.372 98.2847 135.964 99.8235 137.148C101.374 138.331 102.475 139.894 103.126 141.835ZM121.792 135.727V139.278H107.658V135.727H121.792ZM111.778 129.193H115.968V155.188C115.968 156.371 116.14 157.259 116.483 157.851C116.838 158.431 117.288 158.821 117.832 159.023C118.389 159.212 118.974 159.307 119.59 159.307C120.052 159.307 120.43 159.283 120.726 159.236C121.022 159.177 121.259 159.129 121.437 159.094L122.289 162.858C122.005 162.964 121.608 163.071 121.099 163.178C120.59 163.296 119.945 163.355 119.164 163.355C117.98 163.355 116.82 163.101 115.684 162.592C114.559 162.083 113.624 161.307 112.878 160.266C112.144 159.224 111.778 157.91 111.778 156.324V129.193ZM134.345 158.028L134.061 159.946C133.86 161.295 133.552 162.74 133.138 164.278C132.735 165.817 132.315 167.267 131.877 168.629C131.439 169.99 131.078 171.073 130.794 171.878H127.598C127.752 171.12 127.953 170.12 128.202 168.877C128.45 167.634 128.699 166.243 128.947 164.705C129.208 163.178 129.421 161.615 129.586 160.017L129.8 158.028H134.345ZM156.171 135.727H160.362V164.989C160.362 166.67 160.071 168.125 159.491 169.357C158.923 170.588 158.059 171.54 156.899 172.215C155.751 172.89 154.301 173.227 152.549 173.227C152.407 173.227 152.265 173.227 152.123 173.227C151.981 173.227 151.839 173.227 151.697 173.227V169.321C151.839 169.321 151.969 169.321 152.087 169.321C152.206 169.321 152.336 169.321 152.478 169.321C153.756 169.321 154.692 168.942 155.283 168.185C155.875 167.439 156.171 166.374 156.171 164.989V135.727ZM158.231 131.182C157.414 131.182 156.71 130.904 156.118 130.347C155.538 129.791 155.248 129.122 155.248 128.341C155.248 127.56 155.538 126.891 156.118 126.335C156.71 125.778 157.414 125.5 158.231 125.5C159.048 125.5 159.746 125.778 160.326 126.335C160.918 126.891 161.214 127.56 161.214 128.341C161.214 129.122 160.918 129.791 160.326 130.347C159.746 130.904 159.048 131.182 158.231 131.182ZM171.73 126.636V129.832C171.73 130.803 171.552 131.839 171.197 132.94C170.854 134.029 170.345 135.088 169.67 136.118C169.007 137.136 168.202 138.024 167.255 138.781L164.982 136.935C165.728 135.869 166.373 134.763 166.918 133.614C167.474 132.454 167.752 131.217 167.752 129.903V126.636H171.73ZM182.458 163.639C180.73 163.639 179.162 163.314 177.753 162.663C176.345 162 175.226 161.047 174.397 159.804C173.569 158.549 173.154 157.034 173.154 155.259C173.154 153.696 173.462 152.429 174.078 151.459C174.693 150.476 175.516 149.707 176.546 149.151C177.576 148.594 178.712 148.18 179.955 147.908C181.21 147.624 182.47 147.399 183.737 147.233C185.394 147.02 186.738 146.86 187.767 146.754C188.809 146.635 189.567 146.44 190.04 146.168C190.525 145.895 190.768 145.422 190.768 144.747V144.605C190.768 142.853 190.289 141.492 189.33 140.521C188.383 139.551 186.945 139.065 185.015 139.065C183.015 139.065 181.446 139.503 180.31 140.379C179.174 141.255 178.375 142.19 177.913 143.185L173.936 141.764C174.646 140.107 175.593 138.817 176.777 137.893C177.972 136.958 179.274 136.307 180.683 135.94C182.103 135.562 183.5 135.372 184.873 135.372C185.749 135.372 186.755 135.479 187.892 135.692C189.04 135.893 190.147 136.313 191.212 136.952C192.289 137.592 193.183 138.556 193.893 139.847C194.603 141.137 194.958 142.865 194.958 145.031V163H190.768V159.307H190.555C190.271 159.899 189.797 160.532 189.135 161.207C188.472 161.881 187.59 162.455 186.489 162.929C185.388 163.402 184.045 163.639 182.458 163.639ZM183.098 159.875C184.755 159.875 186.152 159.549 187.288 158.898C188.436 158.247 189.3 157.407 189.88 156.377C190.472 155.347 190.768 154.264 190.768 153.128V149.293C190.591 149.506 190.2 149.701 189.596 149.879C189.004 150.044 188.318 150.192 187.537 150.322C186.767 150.441 186.016 150.547 185.282 150.642C184.56 150.725 183.974 150.796 183.524 150.855C182.435 150.997 181.417 151.228 180.47 151.548C179.535 151.855 178.777 152.323 178.197 152.95C177.629 153.566 177.345 154.406 177.345 155.472C177.345 156.928 177.883 158.028 178.961 158.774C180.05 159.508 181.429 159.875 183.098 159.875ZM202.607 163V135.727H206.797V163H202.607ZM204.737 131.182C203.921 131.182 203.216 130.904 202.624 130.347C202.044 129.791 201.754 129.122 201.754 128.341C201.754 127.56 202.044 126.891 202.624 126.335C203.216 125.778 203.921 125.5 204.737 125.5C205.554 125.5 206.253 125.778 206.833 126.335C207.424 126.891 207.72 127.56 207.72 128.341C207.72 129.122 207.424 129.791 206.833 130.347C206.253 130.904 205.554 131.182 204.737 131.182ZM228.534 163V135.727H232.583V139.847H232.867C233.364 138.497 234.264 137.402 235.566 136.562C236.868 135.721 238.336 135.301 239.969 135.301C240.277 135.301 240.662 135.307 241.123 135.319C241.585 135.331 241.934 135.348 242.171 135.372V139.634C242.029 139.598 241.703 139.545 241.194 139.474C240.697 139.391 240.17 139.349 239.614 139.349C238.288 139.349 237.105 139.628 236.063 140.184C235.033 140.728 234.216 141.486 233.613 142.457C233.021 143.415 232.725 144.51 232.725 145.741V163H228.534ZM247.138 163V135.727H251.328V163H247.138ZM249.269 131.182C248.452 131.182 247.748 130.904 247.156 130.347C246.576 129.791 246.286 129.122 246.286 128.341C246.286 127.56 246.576 126.891 247.156 126.335C247.748 125.778 248.452 125.5 249.269 125.5C250.085 125.5 250.784 125.778 251.364 126.335C251.956 126.891 252.252 127.56 252.252 128.341C252.252 129.122 251.956 129.791 251.364 130.347C250.784 130.904 250.085 131.182 249.269 131.182ZM270.438 163.568C267.81 163.568 265.543 162.988 263.637 161.828C261.743 160.656 260.282 159.023 259.252 156.928C258.234 154.821 257.725 152.37 257.725 149.577C257.725 146.783 258.234 144.321 259.252 142.19C260.282 140.048 261.714 138.379 263.549 137.183C265.395 135.976 267.55 135.372 270.012 135.372C271.432 135.372 272.835 135.609 274.22 136.082C275.605 136.556 276.865 137.325 278.002 138.391C279.138 139.444 280.044 140.841 280.718 142.581C281.393 144.321 281.73 146.464 281.73 149.009V150.784H260.708V147.162H277.469C277.469 145.623 277.161 144.25 276.546 143.043C275.942 141.835 275.078 140.882 273.953 140.184C272.841 139.486 271.527 139.136 270.012 139.136C268.343 139.136 266.899 139.551 265.679 140.379C264.472 141.196 263.543 142.261 262.892 143.575C262.241 144.889 261.915 146.298 261.915 147.801V150.216C261.915 152.276 262.27 154.022 262.98 155.454C263.703 156.874 264.703 157.957 265.981 158.703C267.26 159.437 268.745 159.804 270.438 159.804C271.539 159.804 272.533 159.65 273.421 159.342C274.32 159.023 275.096 158.549 275.747 157.922C276.398 157.283 276.901 156.49 277.256 155.543L281.304 156.679C280.878 158.052 280.162 159.259 279.156 160.301C278.15 161.331 276.907 162.136 275.427 162.716C273.948 163.284 272.284 163.568 270.438 163.568ZM292.295 146.594V163H288.105V135.727H292.153V139.989H292.508C293.147 138.604 294.118 137.491 295.42 136.651C296.722 135.798 298.403 135.372 300.463 135.372C302.309 135.372 303.925 135.751 305.31 136.509C306.695 137.254 307.772 138.391 308.542 139.918C309.311 141.433 309.696 143.35 309.696 145.67V163H305.505V145.955C305.505 143.812 304.949 142.143 303.836 140.947C302.724 139.74 301.197 139.136 299.255 139.136C297.918 139.136 296.722 139.426 295.669 140.006C294.627 140.586 293.804 141.433 293.201 142.545C292.597 143.658 292.295 145.008 292.295 146.594ZM44.8608 224.639C43.1326 224.639 41.5642 224.314 40.1555 223.663C38.7469 223 37.6283 222.047 36.7997 220.804C35.9711 219.549 35.5568 218.034 35.5568 216.259C35.5568 214.696 35.8646 213.429 36.4801 212.459C37.0956 211.476 37.9183 210.707 38.9482 210.151C39.978 209.594 41.1143 209.18 42.3572 208.908C43.612 208.624 44.8726 208.399 46.1392 208.233C47.7964 208.02 49.1399 207.86 50.1697 207.754C51.2114 207.635 51.969 207.44 52.4425 207.168C52.9278 206.895 53.1705 206.422 53.1705 205.747V205.605C53.1705 203.853 52.6911 202.492 51.7322 201.521C50.7853 200.551 49.3471 200.065 47.4176 200.065C45.4171 200.065 43.8487 200.503 42.7124 201.379C41.576 202.255 40.777 203.19 40.3153 204.185L36.3381 202.764C37.0483 201.107 37.9953 199.817 39.179 198.893C40.3745 197.958 41.6766 197.307 43.0852 196.94C44.5057 196.562 45.9025 196.372 47.2756 196.372C48.1515 196.372 49.1577 196.479 50.294 196.692C51.4422 196.893 52.549 197.313 53.6143 197.952C54.6915 198.592 55.5852 199.556 56.2955 200.847C57.0057 202.137 57.3608 203.865 57.3608 206.031V224H53.1705V220.307H52.9574C52.6733 220.899 52.1998 221.532 51.5369 222.207C50.8741 222.881 49.9922 223.455 48.8913 223.929C47.7905 224.402 46.447 224.639 44.8608 224.639ZM45.5 220.875C47.1572 220.875 48.554 220.549 49.6903 219.898C50.8385 219.247 51.7027 218.407 52.2827 217.377C52.8745 216.347 53.1705 215.264 53.1705 214.128V210.293C52.9929 210.506 52.6023 210.701 51.9986 210.879C51.4067 211.044 50.7202 211.192 49.9389 211.322C49.1695 211.441 48.4179 211.547 47.6839 211.642C46.9619 211.725 46.3759 211.796 45.9261 211.855C44.8371 211.997 43.8191 212.228 42.8722 212.548C41.937 212.855 41.1795 213.323 40.5994 213.95C40.0313 214.566 39.7472 215.406 39.7472 216.472C39.7472 217.928 40.2857 219.028 41.3629 219.774C42.4519 220.508 43.831 220.875 45.5 220.875ZM45.7841 193.034L40.2443 184.795H45.1449L49.4773 193.034H45.7841ZM79.0716 224V196.727H83.1199V200.989H83.475C84.0431 199.533 84.9605 198.402 86.2271 197.597C87.4937 196.781 89.0147 196.372 90.7903 196.372C92.5895 196.372 94.0869 196.781 95.2825 197.597C96.4899 198.402 97.4309 199.533 98.1056 200.989H98.3897C99.0881 199.58 100.136 198.461 101.532 197.633C102.929 196.792 104.604 196.372 106.557 196.372C108.996 196.372 110.99 197.136 112.541 198.663C114.092 200.178 114.867 202.539 114.867 205.747V224H110.677V205.747C110.677 203.735 110.126 202.297 109.025 201.433C107.925 200.568 106.628 200.136 105.137 200.136C103.219 200.136 101.734 200.716 100.68 201.876C99.6267 203.025 99.1 204.481 99.1 206.244V224H94.8386V205.321C94.8386 203.77 94.3355 202.522 93.3294 201.575C92.3232 200.616 91.027 200.136 89.4409 200.136C88.3519 200.136 87.3339 200.426 86.3869 201.006C85.4518 201.586 84.6942 202.391 84.1142 203.421C83.546 204.439 83.2619 205.617 83.2619 206.955V224H79.0716ZM133.963 224.568C131.335 224.568 129.069 223.988 127.163 222.828C125.269 221.656 123.807 220.023 122.777 217.928C121.759 215.821 121.25 213.37 121.25 210.577C121.25 207.783 121.759 205.321 122.777 203.19C123.807 201.048 125.239 199.379 127.074 198.183C128.921 196.976 131.075 196.372 133.537 196.372C134.958 196.372 136.36 196.609 137.745 197.082C139.13 197.556 140.391 198.325 141.527 199.391C142.664 200.444 143.569 201.841 144.244 203.581C144.919 205.321 145.256 207.464 145.256 210.009V211.784H124.233V208.162H140.994C140.994 206.623 140.687 205.25 140.071 204.043C139.468 202.835 138.603 201.882 137.479 201.184C136.366 200.486 135.052 200.136 133.537 200.136C131.868 200.136 130.424 200.551 129.205 201.379C127.997 202.196 127.068 203.261 126.417 204.575C125.766 205.889 125.441 207.298 125.441 208.801V211.216C125.441 213.276 125.796 215.022 126.506 216.454C127.228 217.874 128.228 218.957 129.507 219.703C130.785 220.437 132.271 220.804 133.963 220.804C135.064 220.804 136.058 220.65 136.946 220.342C137.846 220.023 138.621 219.549 139.272 218.922C139.923 218.283 140.426 217.49 140.781 216.543L144.83 217.679C144.404 219.052 143.687 220.259 142.681 221.301C141.675 222.331 140.432 223.136 138.953 223.716C137.473 224.284 135.81 224.568 133.963 224.568ZM163.491 196.727V200.278H149.357V196.727H163.491ZM153.477 190.193H157.667V216.188C157.667 217.371 157.839 218.259 158.182 218.851C158.537 219.431 158.987 219.821 159.531 220.023C160.088 220.212 160.674 220.307 161.289 220.307C161.751 220.307 162.13 220.283 162.426 220.236C162.722 220.177 162.958 220.129 163.136 220.094L163.988 223.858C163.704 223.964 163.307 224.071 162.798 224.178C162.289 224.296 161.644 224.355 160.863 224.355C159.679 224.355 158.519 224.101 157.383 223.592C156.258 223.083 155.323 222.307 154.578 221.266C153.844 220.224 153.477 218.91 153.477 217.324V190.193ZM181.655 196.727V200.278H167.521V196.727H181.655ZM171.641 190.193H175.831V216.188C175.831 217.371 176.003 218.259 176.346 218.851C176.701 219.431 177.151 219.821 177.695 220.023C178.252 220.212 178.838 220.307 179.453 220.307C179.915 220.307 180.294 220.283 180.59 220.236C180.886 220.177 181.122 220.129 181.3 220.094L182.152 223.858C181.868 223.964 181.472 224.071 180.963 224.178C180.454 224.296 179.808 224.355 179.027 224.355C177.843 224.355 176.683 224.101 175.547 223.592C174.423 223.083 173.487 222.307 172.742 221.266C172.008 220.224 171.641 218.91 171.641 217.324V190.193ZM187.958 224V196.727H192.007V200.847H192.291C192.788 199.497 193.687 198.402 194.99 197.562C196.292 196.721 197.759 196.301 199.393 196.301C199.701 196.301 200.085 196.307 200.547 196.319C201.009 196.331 201.358 196.348 201.595 196.372V200.634C201.453 200.598 201.127 200.545 200.618 200.474C200.121 200.391 199.594 200.349 199.038 200.349C197.712 200.349 196.528 200.628 195.487 201.184C194.457 201.728 193.64 202.486 193.036 203.457C192.445 204.415 192.149 205.51 192.149 206.741V224H187.958ZM217.166 224.568C214.539 224.568 212.272 223.988 210.366 222.828C208.472 221.656 207.01 220.023 205.98 217.928C204.962 215.821 204.453 213.37 204.453 210.577C204.453 207.783 204.962 205.321 205.98 203.19C207.01 201.048 208.442 199.379 210.277 198.183C212.124 196.976 214.278 196.372 216.74 196.372C218.161 196.372 219.563 196.609 220.948 197.082C222.333 197.556 223.594 198.325 224.73 199.391C225.867 200.444 226.772 201.841 227.447 203.581C228.122 205.321 228.459 207.464 228.459 210.009V211.784H207.436V208.162H224.198C224.198 206.623 223.89 205.25 223.274 204.043C222.671 202.835 221.807 201.882 220.682 201.184C219.569 200.486 218.255 200.136 216.74 200.136C215.071 200.136 213.627 200.551 212.408 201.379C211.2 202.196 210.271 203.261 209.62 204.575C208.969 205.889 208.644 207.298 208.644 208.801V211.216C208.644 213.276 208.999 215.022 209.709 216.454C210.431 217.874 211.431 218.957 212.71 219.703C213.988 220.437 215.474 220.804 217.166 220.804C218.267 220.804 219.262 220.65 220.149 220.342C221.049 220.023 221.824 219.549 222.475 218.922C223.126 218.283 223.629 217.49 223.985 216.543L228.033 217.679C227.607 219.052 226.891 220.259 225.884 221.301C224.878 222.331 223.635 223.136 222.156 223.716C220.676 224.284 219.013 224.568 217.166 224.568ZM248.896 224V196.727H253.086V224H248.896ZM251.026 192.182C250.21 192.182 249.505 191.904 248.914 191.347C248.334 190.791 248.044 190.122 248.044 189.341C248.044 188.56 248.334 187.891 248.914 187.335C249.505 186.778 250.21 186.5 251.026 186.5C251.843 186.5 252.542 186.778 253.122 187.335C253.713 187.891 254.009 188.56 254.009 189.341C254.009 190.122 253.713 190.791 253.122 191.347C252.542 191.904 251.843 192.182 251.026 192.182ZM271.841 224.568C269.284 224.568 267.082 223.964 265.235 222.757C263.389 221.55 261.968 219.887 260.974 217.768C259.98 215.649 259.483 213.228 259.483 210.506C259.483 207.736 259.992 205.291 261.01 203.173C262.039 201.042 263.472 199.379 265.306 198.183C267.153 196.976 269.307 196.372 271.77 196.372C273.687 196.372 275.415 196.727 276.954 197.438C278.493 198.148 279.754 199.142 280.736 200.42C281.719 201.699 282.328 203.19 282.565 204.895H278.375C278.055 203.652 277.345 202.551 276.244 201.592C275.155 200.622 273.687 200.136 271.841 200.136C270.207 200.136 268.775 200.562 267.544 201.415C266.324 202.255 265.372 203.445 264.685 204.984C264.01 206.511 263.673 208.304 263.673 210.364C263.673 212.471 264.004 214.305 264.667 215.868C265.342 217.43 266.289 218.644 267.508 219.508C268.739 220.372 270.183 220.804 271.841 220.804C272.93 220.804 273.918 220.615 274.806 220.236C275.694 219.857 276.445 219.312 277.061 218.602C277.676 217.892 278.114 217.04 278.375 216.045H282.565C282.328 217.655 281.742 219.105 280.807 220.396C279.884 221.674 278.659 222.692 277.132 223.45C275.617 224.195 273.853 224.568 271.841 224.568ZM288.691 224V196.727H292.881V224H288.691ZM290.821 192.182C290.005 192.182 289.3 191.904 288.708 191.347C288.128 190.791 287.838 190.122 287.838 189.341C287.838 188.56 288.128 187.891 288.708 187.335C289.3 186.778 290.005 186.5 290.821 186.5C291.638 186.5 292.337 186.778 292.917 187.335C293.508 187.891 293.804 188.56 293.804 189.341C293.804 190.122 293.508 190.791 292.917 191.347C292.337 191.904 291.638 192.182 290.821 192.182Z" fill="white"/>
</svg>
